<svg xmlns="http://www.w3.org/2000/svg" width="600" height="400" viewBox="0 0 600 400"><rect width="100%" height="100%" fill="#141414"/><path fill="#696969" d="M161.745 174.78h5.79v41.21h-6.76v-26.62q0-1.59.17-3.45l-12.45 23.4q-.88 1.68-2.71 1.68h-1.08q-1.82 0-2.71-1.68l-12.59-23.48q.08.94.14 1.85.05.91.05 1.68v26.62h-6.75v-41.21h5.79q.51 0 .88.03t.67.14.54.37.47.68l12.34 22.89q.49.91.9 1.88t.81 2q.4-1.06.83-2.04.43-.99.91-1.9l12.17-22.83q.23-.42.48-.68.26-.26.56-.37t.67-.14.88-.03m14.08 11.97h7.07v29.24h-7.07zm8.04-8.52q0 .91-.37 1.71t-.98 1.39q-.62.6-1.44.96-.83.36-1.77.36-.91 0-1.73-.36-.81-.36-1.41-.96-.59-.59-.95-1.39t-.36-1.71q0-.94.36-1.77t.95-1.42q.6-.6 1.41-.96.82-.36 1.73-.36.94 0 1.77.36.82.36 1.44.96.61.59.98 1.42t.37 1.77m25.65 11.68-1.6 2.54q-.28.45-.6.64-.31.19-.79.19-.52 0-1.1-.29l-1.35-.64q-.77-.36-1.76-.64-.98-.29-2.32-.29-2.08 0-3.26.89-1.19.88-1.19 2.3 0 .95.62 1.59.61.64 1.62 1.12 1.01.49 2.3.87 1.28.39 2.6.84 1.33.46 2.61 1.04 1.28.59 2.3 1.48 1.01.9 1.62 2.16.61 1.25.61 3.02 0 2.11-.75 3.89-.76 1.78-2.24 3.08-1.48 1.29-3.66 2.02t-5.03.73q-1.51 0-2.95-.27-1.44-.28-2.77-.76-1.32-.48-2.45-1.14-1.12-.66-1.98-1.43l1.63-2.67q.31-.49.74-.75.42-.25 1.08-.25t1.24.37 1.35.8q.77.42 1.81.8 1.04.37 2.64.37 1.25 0 2.15-.3t1.48-.79q.59-.48.86-1.12t.27-1.33q0-1.02-.61-1.68-.62-.66-1.63-1.14t-2.31-.87q-1.29-.38-2.65-.84-1.35-.46-2.65-1.07-1.29-.61-2.31-1.55-1.01-.94-1.62-2.31t-.61-3.31q0-1.79.71-3.42.71-1.62 2.09-2.83 1.39-1.21 3.45-1.94 2.07-.73 4.78-.73 3.02 0 5.5 1t4.13 2.62m25.05 0-1.6 2.54q-.28.45-.59.64-.32.19-.8.19-.52 0-1.1-.29-.58-.28-1.35-.64t-1.76-.64q-.98-.29-2.32-.29-2.08 0-3.26.89-1.18.88-1.18 2.3 0 .95.61 1.59t1.62 1.12q1.01.49 2.3.87 1.28.39 2.6.84 1.33.46 2.61 1.04 1.28.59 2.3 1.48 1.01.9 1.62 2.16.61 1.25.61 3.02 0 2.11-.75 3.89-.76 1.78-2.24 3.08-1.48 1.29-3.66 2.02t-5.03.73q-1.51 0-2.95-.27-1.44-.28-2.77-.76-1.32-.48-2.45-1.14-1.12-.66-1.98-1.43l1.63-2.67q.31-.49.74-.75.43-.25 1.08-.25.66 0 1.24.37.59.37 1.35.8.77.42 1.81.8 1.04.37 2.64.37 1.26 0 2.15-.3.9-.3 1.48-.79.59-.48.86-1.12t.27-1.33q0-1.02-.61-1.68-.62-.66-1.63-1.14t-2.31-.87q-1.29-.38-2.65-.84-1.35-.46-2.65-1.07-1.29-.61-2.3-1.55-1.02-.94-1.63-2.31t-.61-3.31q0-1.79.71-3.42.71-1.62 2.1-2.83 1.38-1.21 3.44-1.94 2.07-.73 4.78-.73 3.02 0 5.5 1t4.13 2.62m5.84-3.16h7.07v29.24h-7.07zm8.04-8.52q0 .91-.37 1.71t-.98 1.39q-.62.6-1.44.96-.83.36-1.77.36-.91 0-1.72-.36-.82-.36-1.42-.96-.59-.59-.95-1.39t-.36-1.71q0-.94.36-1.77t.95-1.42q.6-.6 1.42-.96.81-.36 1.72-.36.94 0 1.77.36.82.36 1.44.96.61.59.98 1.42t.37 1.77m12.31 9.8.49 2.31q.88-.88 1.86-1.64.99-.75 2.08-1.28 1.1-.53 2.36-.83 1.25-.3 2.73-.3 2.4 0 4.25.82 1.85.81 3.09 2.28 1.24 1.46 1.88 3.5t.64 4.49v18.61h-7.04v-18.61q0-2.68-1.22-4.15-1.23-1.47-3.74-1.47-1.82 0-3.42.83-1.59.83-3.02 2.25v21.15h-7.04v-29.24h4.31q1.36 0 1.79 1.28m36.74 12.63q1.31 0 2.28-.36t1.61-.98q.64-.63.97-1.51.33-.89.33-1.94 0-2.17-1.3-3.44-1.3-1.26-3.89-1.26t-3.89 1.26q-1.3 1.27-1.3 3.44 0 1.02.33 1.91.33.88.97 1.52t1.62 1q.99.36 2.27.36m7.95 16.64q0-.85-.51-1.4-.52-.54-1.4-.84t-2.07-.44q-1.18-.14-2.5-.21-1.33-.07-2.74-.13t-2.75-.23q-1.17.66-1.9 1.54-.72.88-.72 2.05 0 .77.38 1.44.39.67 1.23 1.16.84.48 2.18.75t3.28.27q1.96 0 3.39-.3 1.42-.3 2.35-.82.93-.53 1.35-1.26.43-.72.43-1.58m-1.4-29.55h8.41v2.62q0 1.25-1.51 1.54l-2.62.48q.6 1.51.6 3.31 0 2.16-.87 3.92-.87 1.75-2.41 2.97-1.54 1.23-3.63 1.9-2.1.67-4.52.67-.86 0-1.65-.09-.8-.08-1.57-.22-1.37.82-1.37 1.85 0 .88.81 1.3.81.41 2.15.58t3.05.21q1.71.05 3.51.19 1.79.14 3.5.5 1.71.35 3.05 1.12t2.16 2.1q.81 1.32.81 3.4 0 1.94-.96 3.77-.95 1.82-2.76 3.25-1.81 1.42-4.45 2.29-2.63.87-6 .87-3.3 0-5.75-.64t-4.08-1.71q-1.62-1.07-2.42-2.47-.8-1.39-.8-2.91 0-2.05 1.24-3.43t3.41-2.21q-1.17-.6-1.86-1.59-.68-1-.68-2.63 0-.65.24-1.35t.71-1.38q.47-.69 1.19-1.3.71-.61 1.68-1.1-2.22-1.19-3.49-3.19-1.27-1.99-1.27-4.67 0-2.17.87-3.92t2.42-2.99 3.68-1.9q2.12-.65 4.63-.65 1.88 0 3.53.38 1.66.39 3.02 1.13m26.94-1h7.06v29.24h-7.06zm8.03-8.52q0 .91-.37 1.71t-.98 1.39q-.61.6-1.44.96t-1.77.36q-.91 0-1.72-.36t-1.41-.96q-.6-.59-.96-1.39-.35-.8-.35-1.71 0-.94.35-1.77.36-.83.96-1.42.6-.6 1.41-.96t1.72-.36q.94 0 1.77.36t1.44.96q.61.59.98 1.42t.37 1.77m13.26 37.76h-7.04v-29.24h4.3q1.37 0 1.8 1.28l.45 2.17q.77-.86 1.61-1.57t1.8-1.23q.95-.51 2.05-.81t2.41-.3q2.76 0 4.54 1.5t2.67 3.97q.68-1.45 1.71-2.49 1.02-1.04 2.25-1.69 1.22-.66 2.61-.97 1.38-.32 2.78-.32 2.42 0 4.3.74 1.88.75 3.16 2.17 1.29 1.42 1.95 3.48.67 2.05.67 4.7v18.61h-7.03v-18.61q0-2.79-1.23-4.2-1.23-1.42-3.59-1.42-1.08 0-2.01.38-.93.37-1.63 1.06-.69.7-1.09 1.76-.4 1.05-.4 2.42v18.61h-7.07v-18.61q0-2.94-1.18-4.28t-3.46-1.34q-1.54 0-2.87.76-1.32.76-2.46 2.07zm56.14-7.55v-4.93q-3.05.14-5.13.52-2.08.39-3.33.99-1.26.6-1.8 1.39-.54.8-.54 1.74 0 1.85 1.1 2.65 1.09.8 2.86.8 2.17 0 3.75-.78 1.58-.79 3.09-2.38m-14.88-15.36-1.25-2.26q5.04-4.61 12.14-4.61 2.57 0 4.59.84t3.42 2.34q1.4 1.49 2.12 3.57.73 2.08.73 4.56v18.47h-3.19q-1 0-1.54-.3t-.86-1.21l-.62-2.11q-1.12 1-2.17 1.75-1.05.76-2.19 1.27t-2.44.79q-1.3.27-2.87.27-1.85 0-3.42-.5-1.56-.5-2.7-1.5t-1.77-2.48-.63-3.45q0-1.11.37-2.21.37-1.09 1.21-2.09.85-1 2.19-1.88 1.33-.89 3.29-1.54 1.95-.66 4.54-1.07 2.6-.41 5.93-.5v-1.71q0-2.93-1.25-4.34-1.26-1.42-3.62-1.42-1.71 0-2.84.4-1.12.4-1.98.9-.85.5-1.55.9t-1.56.4q-.74 0-1.25-.39-.51-.38-.83-.89m39.05 7.58q1.31 0 2.28-.36t1.61-.98q.64-.63.97-1.51.33-.89.33-1.94 0-2.17-1.3-3.44-1.3-1.26-3.89-1.26t-3.89 1.26q-1.3 1.27-1.3 3.44 0 1.02.33 1.91.33.88.97 1.52t1.62 1q.99.36 2.27.36m7.95 16.64q0-.85-.51-1.4-.52-.54-1.4-.84t-2.07-.44q-1.18-.14-2.5-.21-1.33-.07-2.74-.13t-2.75-.23q-1.17.66-1.9 1.54-.72.88-.72 2.05 0 .77.38 1.44.39.67 1.23 1.16.84.48 2.18.75t3.28.27q1.96 0 3.39-.3 1.42-.3 2.35-.82.93-.53 1.35-1.26.43-.72.43-1.58m-1.4-29.55h8.41v2.62q0 1.25-1.51 1.54l-2.62.48q.6 1.51.6 3.31 0 2.16-.87 3.92-.87 1.75-2.41 2.97-1.54 1.23-3.63 1.9-2.1.67-4.52.67-.86 0-1.65-.09-.8-.08-1.57-.22-1.37.82-1.37 1.85 0 .88.81 1.3.81.41 2.15.58t3.05.21q1.71.05 3.51.19 1.79.14 3.5.5 1.71.35 3.05 1.12t2.16 2.1q.81 1.32.81 3.4 0 1.94-.96 3.77-.95 1.82-2.76 3.25-1.81 1.42-4.45 2.29-2.63.87-6 .87-3.3 0-5.75-.64t-4.08-1.71q-1.62-1.07-2.42-2.47-.8-1.39-.8-2.91 0-2.05 1.24-3.43t3.41-2.21q-1.17-.6-1.86-1.59-.68-1-.68-2.63 0-.65.24-1.35t.71-1.38q.47-.69 1.19-1.3.71-.61 1.68-1.1-2.22-1.19-3.49-3.19-1.27-1.99-1.27-4.67 0-2.17.87-3.92t2.42-2.99 3.68-1.9q2.12-.65 4.63-.65 1.88 0 3.53.38 1.66.39 3.02 1.13m18.41 10.26h13.29q0-1.37-.39-2.58-.38-1.21-1.15-2.13-.77-.91-1.96-1.44-1.18-.52-2.75-.52-3.05 0-4.8 1.74-1.75 1.73-2.24 4.93m17.96 4.24h-18.1q.17 2.25.8 3.89t1.65 2.71q1.03 1.07 2.44 1.6 1.41.52 3.12.52t2.95-.4q1.24-.39 2.17-.88.92-.48 1.62-.88t1.35-.4q.89 0 1.32.65l2.02 2.57q-1.17 1.37-2.62 2.29-1.46.93-3.04 1.49-1.58.55-3.22.78t-3.18.23q-3.05 0-5.67-1.01-2.62-1.02-4.56-3t-3.05-4.9-1.11-6.77q0-2.99.97-5.63.97-2.63 2.78-4.58 1.81-1.96 4.42-3.1 2.6-1.14 5.88-1.14 2.77 0 5.1.89 2.34.88 4.02 2.58 1.68 1.69 2.64 4.16.95 2.46.95 5.63 0 1.59-.34 2.15-.34.55-1.31.55"/></svg>